<!DOCTYPE svg PUBLIC "-//W3C//DTD SVG 1.1//EN" "http://www.w3.org/Graphics/SVG/1.1/DTD/svg11.dtd">
<!-- Uploaded to: SVG Repo, www.svgrepo.com, Transformed by: SVG Repo Mixer Tools -->
<svg height="64px" width="64px" version="1.1" id="Layer_1" xmlns="http://www.w3.org/2000/svg" xmlns:xlink="http://www.w3.org/1999/xlink" viewBox="0 0 495 495" xml:space="preserve" fill="#000000">
<g id="SVGRepo_bgCarrier" stroke-width="0"/>
<g id="SVGRepo_tracerCarrier" stroke-linecap="round" stroke-linejoin="round"/>
<g id="SVGRepo_iconCarrier"> <g> <polygon style="fill:#A258CD;" points="40,40 111,40 111,0 0,0 0,111 40,111 "/> <polygon style="fill:#8034AD;" points="384,0 384,40 455,40 455,111 495,111 495,0 "/> <polygon style="fill:#8034AD;" points="455,455 384,455 384,495 495,495 495,384 455,384 "/> <polygon style="fill:#A258CD;" points="40,384 0,384 0,495 111,495 111,455 40,455 "/> <path style="fill:#D80027;" d="M279.405,180c26.191,0,47.5-21.309,47.5-47.5S305.597,85,279.405,85s-47.5,21.309-47.5,47.5 S253.214,180,279.405,180z"/> <polygon style="fill:#CC7400;" points="181.238,221.922 181.238,410 280.241,410 280.241,292.672 "/> <polygon style="fill:#CC7400;" points="410,313.18 351.358,251.304 351.358,410 410,410 "/> <polygon style="fill:#EE8700;" points="280.241,292.672 280.241,410 351.358,410 351.358,251.304 "/> <polygon style="fill:#EE8700;" points="85,323.465 85,410 181.238,410 181.238,221.922 "/> </g> </g>
</svg>